<?xml version="1.0" encoding="UTF-8"?>
<svg version="1.1" xmlns="http://www.w3.org/2000/svg" width="1080" height="1080">
<path d="M0 0 C12.75702427 10.45627062 21.46462286 23.55008906 23.6640625 40.18359375 C25.2540142 58.38949854 21.810042 74.23453715 10.4765625 88.93359375 C-0.74886184 101.98291451 -15.92001456 108.90087218 -32.92842865 110.41427231 C-40.31450266 110.90188749 -47.71181722 111.1175578 -55.109375 111.3515625 C-57.48837086 111.4358694 -59.86732781 111.52128091 -62.24624634 111.60774231 C-68.46328005 111.8307648 -74.68072314 112.03891947 -80.89837646 112.24383545 C-87.26069565 112.45620134 -93.62250576 112.68282681 -99.984375 112.90820312 C-112.43444197 113.34718145 -124.88498889 113.77043266 -137.3359375 114.18359375 C-136.71406363 109.07154786 -134.40497047 104.88560942 -132.12670898 100.34521484 C-131.69074905 99.46482544 -131.25478912 98.58443604 -130.80561829 97.67736816 C-129.36234771 94.76743049 -127.9101586 91.86205797 -126.45703125 88.95703125 C-125.44605941 86.92798356 -124.43532587 84.89881712 -123.42481995 82.86953735 C-121.30291326 78.61227002 -119.1762627 74.35741173 -117.04663086 70.10400391 C-114.33140817 64.67943059 -111.63079138 59.24773476 -108.93414211 53.81390953 C-106.84860234 49.61683965 -104.7537848 45.42445131 -102.65638924 41.23329544 C-101.65778672 39.23440728 -100.6623356 37.23394127 -99.67022514 35.23182297 C-89.4813349 14.69070651 -79.47648596 -1.15202216 -57.3359375 -9.81640625 C-37.45611744 -15.99526924 -16.56702916 -12.71694492 0 0 Z " fill="#FFB048" transform="translate(651.3359375,312.81640625)"/>
<path d="M0 0 C10.97925761 1.74871302 21.76850965 4.43064064 32.58203125 6.98046875 C33.61359533 7.22364649 34.64515942 7.46682423 35.70798302 7.71737099 C41.16510097 9.00516993 46.62109773 10.29761789 52.07641602 11.59301758 C56.55959676 12.656542 61.04492539 13.71017499 65.5324707 14.75512695 C70.98891942 16.02574967 76.44102814 17.31363362 81.89056969 18.61355019 C83.9513654 19.10219236 86.01355483 19.58499923 88.07718849 20.0615139 C109.06739697 24.91823041 126.73068319 31.76082809 139.0546875 50.578125 C147.23407737 64.96596742 149.90453902 82.704279 145.9375 98.9375 C142.07675064 110.25039346 136.60161542 119.63170145 128 128 C127.48308594 128.54914063 126.96617187 129.09828125 126.43359375 129.6640625 C115.69137284 140.15385524 99.75054749 144.76206032 85.1171875 145.0859375 C66.88050235 144.37444465 51.41759065 137.36535069 39 124 C30.37414093 112.88403444 26.39763749 99.75973645 22.890625 86.33203125 C22.5165297 84.92587832 22.14165242 83.51993323 21.76605225 82.11418152 C20.78240854 78.42500251 19.8085812 74.73330657 18.8371582 71.04089355 C17.87855758 67.40279492 16.91190283 63.76684195 15.9453125 60.13085938 C14.79448629 55.80115735 13.64407329 51.47135442 12.4979248 47.14041138 C9.30694731 35.09262727 6.03473938 23.06765718 2.72955322 11.05073547 C2.54565788 10.38043367 2.36176254 9.71013187 2.17229462 9.0195179 C1.67565801 7.20952962 1.17757025 5.39993971 0.67938232 3.59037781 C0 1 0 1 0 0 Z " fill="#FF914D" transform="translate(509,437)"/>
<path d="M0 0 C67.37104072 0 67.37104072 0 78 9 C84.37994395 15.60282409 87.09505756 22.82770647 87.375 31.9375 C87.05759193 42.34583963 83.94385027 50.35123449 76.34765625 57.5703125 C74.33394423 59.29353795 72.37588784 60.81205608 70 62 C70.78503906 62.30292969 71.57007813 62.60585938 72.37890625 62.91796875 C82.31425594 66.87991801 89.13642325 70.17785477 94 80 C97.67994345 88.93700551 97.12153689 99.51517511 93.453125 108.36328125 C87.53864869 119.09519391 78.64912231 124.69415893 67.3359375 128.421875 C45.54200441 133.81569122 22.45147597 130 0 130 C0 87.1 0 44.2 0 0 Z M16 4 C16 22.81 16 41.62 16 61 C21.89875 61.103125 27.7975 61.20625 33.875 61.3125 C36.63593018 61.38078003 36.63593018 61.38078003 39.45263672 61.45043945 C50.01976337 61.60252602 57.82386504 60.83856094 65.875 53.3125 C71.33024367 44.80873782 73.20752612 37.1208117 72 27 C70.1178667 19.10394966 65.81179168 12.10293108 58.91015625 7.65234375 C53.02143002 4.59283794 48.01546272 3.85337085 41.390625 3.90234375 C40.74593262 3.90335083 40.10124023 3.90435791 39.43701172 3.90539551 C37.04132291 3.91060598 34.64565957 3.92456719 32.25 3.9375 C26.8875 3.958125 21.525 3.97875 16 4 Z M16 65 C16 84.8 16 104.6 16 125 C21.878125 125.0825 27.75625 125.165 33.8125 125.25 C35.64401611 125.28641602 37.47553223 125.32283203 39.36254883 125.36035156 C50.9631102 125.49498555 60.87150821 124.34780135 70.21484375 116.76953125 C76.62096409 110.41948198 80.22790363 102.92220423 80.5 93.875 C80.35243976 85.80529929 77.76826079 78.85199992 72.06640625 73.0234375 C63.64157225 66.35583009 54.81310448 64.83246517 44.3203125 64.90234375 C43.59900146 64.90335083 42.87769043 64.90435791 42.13452148 64.90539551 C39.4646646 64.91058978 36.79483054 64.92455078 34.125 64.9375 C28.14375 64.958125 22.1625 64.97875 16 65 Z " fill="#EB8647" transform="translate(498,639)"/>
<path d="M0 0 C71.99734043 0 71.99734043 0 82.8359375 10.51171875 C90.06243996 18.82089216 92.38163809 28.69594278 91.875 39.5 C90.53317621 52.21750765 84.87512547 60.41396056 75 68.4375 C69.77637669 71.15813714 64.91937094 73 59 73 C59.5576001 73.84892822 60.1152002 74.69785645 60.68969727 75.57250977 C61.48194668 76.7788 62.27418176 77.98509964 63.06640625 79.19140625 C63.49246155 79.84015213 63.91851685 80.48889801 64.35748291 81.15730286 C66.71756982 84.75142057 69.07672586 88.34614514 71.43432617 91.94189453 C71.91121384 92.66922791 72.3881015 93.39656128 72.87944031 94.14593506 C73.8483119 95.62365788 74.81715326 97.10140052 75.78596497 98.5791626 C78.3926123 102.55385932 81.00399946 106.52534042 83.62306213 110.49186707 C85.35591898 113.11757429 87.08362351 115.74667085 88.8125 118.375 C89.44551025 119.32963135 90.07852051 120.2842627 90.73071289 121.26782227 C91.58524048 122.56997681 91.58524048 122.56997681 92.45703125 123.8984375 C92.95178955 124.64786621 93.44654785 125.39729492 93.95629883 126.16943359 C95 128 95 128 95 130 C92.30568602 130.27276519 89.63904455 130.46858303 86.9375 130.625 C86.18533203 130.70878906 85.43316406 130.79257812 84.65820312 130.87890625 C82.13055829 130.9883281 80.38504997 130.86872321 78 130 C75.04248361 127.04171141 73.0882584 123.6034472 71 120 C69.83420419 118.15665185 68.66489291 116.31552261 67.4921875 114.4765625 C66.28408125 112.52751308 65.07842577 110.57694282 63.875 108.625 C58.33504351 99.68373219 52.68979504 90.82482484 46.86083984 82.06884766 C46.35117676 81.29589355 45.84151367 80.52293945 45.31640625 79.7265625 C44.86724854 79.05189941 44.41809082 78.37723633 43.95532227 77.68212891 C43 76 43 76 43 74 C34.09 74 25.18 74 16 74 C16 92.48 16 110.96 16 130 C10.72 130 5.44 130 0 130 C0 87.1 0 44.2 0 0 Z M16 4 C16 25.78 16 47.56 16 70 C21.40375 70.061875 26.8075 70.12375 32.375 70.1875 C34.05899902 70.21481201 35.74299805 70.24212402 37.47802734 70.27026367 C48.13137868 70.3719021 57.58757082 69.82607842 66.18359375 62.79296875 C73.55645498 55.51524121 77.06217913 46.86762768 77.4375 36.625 C77.17572823 26.87115628 73.93667124 18.00031043 67 11 C59.9628745 5.48289361 53.13167898 3.68732583 44.3203125 3.8046875 C43.59900146 3.80670166 42.87769043 3.80871582 42.13452148 3.81079102 C39.46461541 3.82117976 36.79480067 3.84910186 34.125 3.875 C28.14375 3.91625 22.1625 3.9575 16 4 Z " fill="#EB8647" transform="translate(635,639)"/>
<path d="M0 0 C5.28 0 10.56 0 16 0 C16.33 26.73 16.66 53.46 17 81 C25.95676298 72.1335742 25.95676298 72.1335742 34.29296875 62.92578125 C36.98978013 59.88338305 39.91534396 57.07674191 42.80859375 54.22265625 C45.42435444 51.56959416 47.83956044 48.78176046 50.26171875 45.953125 C52.05551022 43.93762897 53.93899049 42.06623112 55.875 40.1875 C67.70167348 28.45197622 76.27872229 14.65062949 84 0 C89.28 0 94.56 0 100 0 C95.80642906 4.95313706 91.49992474 9.76479429 87.0625 14.5 C86.48048828 15.12519531 85.89847656 15.75039063 85.29882812 16.39453125 C81.78871749 20.14953333 78.20182001 23.81067808 74.55541992 27.43310547 C72.67099029 29.33143687 70.88022473 31.294396 69.125 33.3125 C68.55007813 33.96863281 67.97515625 34.62476563 67.3828125 35.30078125 C65.92805799 36.96247547 65.92805799 36.96247547 65 39 C65.8923853 41.26201695 66.84789925 43.39634898 67.91015625 45.578125 C68.2286554 46.24838715 68.54715454 46.91864929 68.87530518 47.60922241 C69.93061482 49.82627415 70.99668833 52.03798043 72.0625 54.25 C72.79866619 55.79302987 73.53392691 57.33649204 74.26831055 58.88037109 C75.7756468 62.04823795 77.28617378 65.21455219 78.79882812 68.37988281 C82.01025074 75.10946052 85.16496636 81.86535992 88.3125 88.625 C88.59652679 89.2348172 88.88055359 89.8446344 89.17318726 90.47293091 C90.57096187 93.4747059 91.96740106 96.47709708 93.36279297 99.47998047 C94.46381758 101.84719981 95.56704584 104.21339533 96.67236328 106.57861328 C98.24541972 109.94571092 99.81115848 113.3161147 101.375 116.6875 C101.84591064 117.69184082 102.31682129 118.69618164 102.80200195 119.73095703 C103.22570068 120.6486084 103.64939941 121.56625977 104.0859375 122.51171875 C104.6435376 123.70994263 104.6435376 123.70994263 105.21240234 124.93237305 C106 127 106 127 106 130 C101.05 130 96.1 130 91 130 C85.70136458 119.44993694 80.46411124 108.87262939 75.3125 98.25 C74.80465973 97.20463577 74.80465973 97.20463577 74.28656006 96.13815308 C70.50870699 88.3570204 66.77092593 80.56004492 63.14453125 72.70703125 C62.84329849 72.05481598 62.54206573 71.40260071 62.23170471 70.73062134 C60.80801742 67.64278424 59.39271212 64.55150127 57.9855957 61.45605469 C57.48761475 60.3684082 56.98963379 59.28076172 56.4765625 58.16015625 C56.04424316 57.20761963 55.61192383 56.25508301 55.16650391 55.27368164 C54.08597877 52.88173796 54.08597877 52.88173796 52 51 C51.47792969 51.59425781 50.95585937 52.18851563 50.41796875 52.80078125 C45.32063309 58.54086326 40.02407156 64.00540351 34.56640625 69.40234375 C31.83044531 72.17161929 29.26342253 75.01805973 26.80810547 78.03759766 C25 80 25 80 22.96166992 81.36645508 C19.65731641 83.76380626 17.42360998 86.03814491 16.5375061 90.14193726 C15.80370127 96.57376676 15.93265441 103.03696124 16 109.5 C15.99190171 111.48699722 15.9802186 113.47398326 15.96484375 115.4609375 C15.93510753 120.30814722 15.95429696 125.15293837 16 130 C10.72 130 5.44 130 0 130 C0 87.1 0 44.2 0 0 Z " fill="#EB8647" transform="translate(209,639)"/>
<path d="M0 0 C5.28 0 10.56 0 16 0 C22.87055468 16.75145917 29.61620331 33.54294947 36.20697021 50.40667725 C42.22810477 65.81263748 48.26292622 81.21259032 54.42578125 96.5625 C54.84922318 97.61744659 55.2726651 98.67239319 55.7089386 99.75930786 C57.706035 104.73097876 59.70845223 109.70044203 61.71704102 114.66748047 C62.42339095 116.4215289 63.12969276 118.17559671 63.8359375 119.9296875 C64.15979935 120.72584473 64.48366119 121.52200195 64.81733704 122.34228516 C67 127.77381553 67 127.77381553 67 130 C61.72 130 56.44 130 51 130 C48.25648177 123.14363662 45.51732272 116.28557077 42.78582001 109.42441082 C41.51732483 106.23863193 40.24692783 103.05363921 38.97216797 99.87036133 C37.50701568 96.21140152 36.05016368 92.54916616 34.59375 88.88671875 C34.13440063 87.7428923 33.67505127 86.59906586 33.20178223 85.420578 C32.78134644 84.35970474 32.36091064 83.29883148 31.92773438 82.20581055 C31.55467163 81.27093307 31.18160889 80.3360556 30.79724121 79.37284851 C30 77 30 77 30 74 C14.16 74.33 -1.68 74.66 -18 75 C-19.50433594 78.80273438 -21.00867188 82.60546875 -22.55859375 86.5234375 C-23.7572013 89.55186231 -24.95598924 92.58021557 -26.1548996 95.60852051 C-27.42119928 98.80718786 -28.68717939 102.00598085 -29.95239258 105.20507812 C-31.4034695 108.87409012 -32.85599143 112.54252915 -34.30859375 116.2109375 C-34.76278183 117.35992523 -35.21696991 118.50891296 -35.68492126 119.69271851 C-36.31546165 121.28414169 -36.31546165 121.28414169 -36.95874023 122.90771484 C-37.32958237 123.84481293 -37.7004245 124.78191101 -38.08250427 125.74740601 C-39 128 -39 128 -40 130 C-41.32 130 -42.64 130 -44 130 C-43.29824755 125.64600431 -41.84938857 121.68681274 -40.25390625 117.59765625 C-39.97146057 116.86449692 -39.68901489 116.13133759 -39.39801025 115.3759613 C-38.45687619 112.93655973 -37.50977579 110.49952252 -36.5625 108.0625 C-35.89322337 106.3321279 -35.22420213 104.601657 -34.55541992 102.87109375 C-29.722829 90.38081624 -24.84431701 77.90838935 -19.96203613 65.43746948 C-18.81574425 62.50829021 -17.67090967 59.57854486 -16.52636719 56.64868164 C-13.40052856 48.65170084 -10.27300509 40.65618565 -7.07221985 32.68884277 C-5.91026248 29.79325021 -4.75847752 26.89367533 -3.60824585 23.9934082 C-3.08495073 22.68251129 -2.5564648 21.37367248 -2.02236938 20.06713867 C-1.30013678 18.29999787 -0.59680481 16.52516714 0.10546875 14.75 C0.49887451 13.77546875 0.89228027 12.8009375 1.29760742 11.796875 C2.38061868 7.48440473 1.38000675 4.14002024 0 0 Z M5 14 C4.69385773 14.77475174 4.69385773 14.77475174 4.38153076 15.56515503 C2.24011794 20.98429063 0.09841214 26.40331038 -2.04345703 31.82226562 C-2.84073136 33.83948906 -3.63793321 35.85674114 -4.43505859 37.87402344 C-5.58671914 40.78848854 -6.73864803 43.70284746 -7.890625 46.6171875 C-8.24183411 47.50614716 -8.59304321 48.39510681 -8.95489502 49.31100464 C-9.46497101 50.60121017 -9.46497101 50.60121017 -9.98535156 51.91748047 C-10.31442505 52.75277283 -10.64349854 53.58806519 -10.98254395 54.44866943 C-11.69118899 56.22563833 -12.41317743 57.99731952 -13.14538574 59.76470947 C-13.51216431 60.65462585 -13.87894287 61.54454224 -14.25683594 62.46142578 C-14.59100525 63.26105743 -14.92517456 64.06068909 -15.26947021 64.884552 C-16.16320796 67.09960753 -16.16320796 67.09960753 -16 70 C-1.48 70 13.04 70 28 70 C20.93988942 51.20360171 13.67680303 32.55133898 6 14 C5.67 14 5.34 14 5 14 Z " fill="#EB8647" transform="translate(392,639)"/>
<path d="M0 0 C4.95 0 9.9 0 15 0 C17.66915204 5.19210357 20.03941396 10.36413075 22.1171875 15.81640625 C22.40682877 16.56555801 22.69647003 17.31470978 22.99488831 18.08656311 C23.62570948 19.71827381 24.25495246 21.35059535 24.88278198 22.98345947 C26.62919128 27.52284525 28.39008219 32.05659254 30.15234375 36.58984375 C30.53211868 37.56687256 30.91189362 38.54390137 31.30317688 39.55053711 C37.15753965 54.57671735 43.18868957 69.53310299 49.19677734 84.49829102 C51.80485158 90.9960736 54.40449933 97.4971861 57 104 C57.43999329 105.09969116 57.87998657 106.19938232 58.33331299 107.33239746 C59.61449127 110.53973218 60.88839069 113.74986069 62.16015625 116.9609375 C62.54876328 117.93124908 62.9373703 118.90156067 63.3377533 119.90127563 C63.86484642 121.23864273 63.86484642 121.23864273 64.40258789 122.60302734 C64.71241104 123.38302094 65.02223419 124.16301453 65.34144592 124.96664429 C66 127 66 127 66 130 C61.05 130 56.1 130 51 130 C46.33928215 120.14617769 42.35608082 110.04579292 38.35961914 99.90844727 C37.17732761 96.91171623 35.98832392 93.91770579 34.79882812 90.92382812 C34.04647302 89.02099222 33.29450548 87.11800302 32.54296875 85.21484375 C32.18679977 84.31910141 31.8306308 83.42335907 31.46366882 82.50047302 C31.1394545 81.67523636 30.81524017 80.84999969 30.48120117 79.99975586 C30.19427902 79.27348495 29.90735687 78.54721405 29.61174011 77.79893494 C29 76 29 76 29 74 C13.16 74 -2.68 74 -19 74 C-19.99 77.3 -20.98 80.6 -22 84 C-23.12273302 87.02317203 -24.26695445 90.0173342 -25.46875 93.0078125 C-25.79033081 93.81813934 -26.11191162 94.62846619 -26.4432373 95.46334839 C-27.45824198 98.0188114 -28.47888598 100.57197286 -29.5 103.125 C-30.51990203 105.68563595 -31.53861626 108.24674048 -32.5567627 110.80807495 C-33.18658529 112.39136911 -33.81760595 113.97418744 -34.45007324 115.556427 C-36.36210748 120.34904466 -38.20282624 125.16308599 -40 130 C-41.65 130 -43.3 130 -45 130 C-43.04228548 123.96678437 -40.91849628 118.0249086 -38.62109375 112.11328125 C-38.29685928 111.27421234 -37.97262482 110.43514343 -37.63856506 109.57064819 C-36.57372436 106.81708227 -35.5057181 104.06475728 -34.4375 101.3125 C-33.68481311 99.36892852 -32.93221052 97.42532439 -32.1796875 95.48168945 C-25.5815041 78.45221375 -18.93793879 61.44032441 -12.26707458 44.43919373 C-11.57345258 42.6676474 -10.88262169 40.89500547 -10.19471741 39.12123108 C-8.32898925 34.32226724 -6.40253218 29.55795933 -4.3984375 24.81494141 C-3.97212036 23.7846431 -3.54580322 22.75434479 -3.10656738 21.69282532 C-2.28651535 19.71331524 -1.44913638 17.74086241 -0.5916748 15.77726746 C1.91705782 9.65241374 2.32448213 6.25001995 0 0 Z M4 15 C1.25791827 21.87420283 -1.48048851 28.74985725 -4.21417999 35.62740135 C-5.48358381 38.82068642 -6.75426011 42.01345287 -8.02783203 45.20507812 C-9.4910799 48.87220033 -10.94881616 52.5415005 -12.40625 56.2109375 C-12.86559937 57.35992523 -13.32494873 58.50891296 -13.79821777 59.69271851 C-14.21865356 60.7536673 -14.63908936 61.81461609 -15.07226562 62.90771484 C-15.44532837 63.84481293 -15.81839111 64.78191101 -16.20275879 65.74740601 C-17.1112139 67.91598112 -17.1112139 67.91598112 -17 70 C-2.48 70 12.04 70 27 70 C25.18039945 64.54119834 23.36875156 59.21407017 21.29296875 53.8671875 C21.04509109 53.22741974 20.79721344 52.58765198 20.54182434 51.92849731 C20.02098496 50.58540844 19.49914146 49.24270854 18.97631836 47.90039062 C18.19747033 45.90060009 17.42169229 43.89964153 16.64648438 41.8984375 C13.15848377 32.90775454 9.59769248 23.94730478 6 15 C5.34 15 4.68 15 4 15 Z " fill="#EB8647" transform="translate(809,639)"/>
<path d="M0 0 C7.41976817 3.84430017 12.22011322 8.49387598 15.1875 16.375 C17.46039577 23.92101396 16.68303089 31.38393821 13.1875 38.375 C9.68576007 44.85970357 4.62432147 48.94839486 -2.125 51.75 C-11.97802009 53.42000341 -19.41077932 52.65971602 -27.78515625 47.0546875 C-33.19859336 42.84806758 -35.67921363 37.77485912 -37.8125 31.375 C-38.71430779 21.52903303 -37.12541002 14.38133478 -31.0625 6.5625 C-23.40850539 -1.83157551 -10.42285935 -4.32342359 0 0 Z " fill="#FFB853" transform="translate(474.8125,446.625)"/>
<path d="M0 0 C6.93086523 3.57967765 11.47214329 8.81102821 14.1328125 16.1015625 C16.39706331 23.65413063 15.63133787 31.10451177 12.1328125 38.1015625 C8.63107257 44.58626607 3.56963397 48.67495736 -3.1796875 51.4765625 C-13.03270759 53.14656591 -20.46546682 52.38627852 -28.83984375 46.78125 C-34.25328086 42.57463008 -36.73390113 37.50142162 -38.8671875 31.1015625 C-39.76899529 21.25559553 -38.18009752 14.10789728 -32.1171875 6.2890625 C-23.99915108 -2.61392401 -10.939021 -4.19525178 0 0 Z " fill="#FFB853" transform="translate(475.8671875,519.8984375)"/>
<path d="M0 0 C7.41976817 3.84430017 12.22011322 8.49387598 15.1875 16.375 C17.42565072 23.8855729 16.62917088 30.95946032 13.4453125 38.05078125 C9.47498473 45.38725647 4.22437957 49.56030674 -3.76171875 51.9609375 C-10.95655783 53.41360977 -18.25875387 52.70501155 -24.8125 49.375 C-31.77536835 44.70010793 -35.20491408 39.19775775 -37.8125 31.375 C-38.55350589 21.7561735 -37.73013627 14.707635 -31.625 7.125 C-23.65716342 -1.4856769 -10.98132577 -4.55507661 0 0 Z " fill="#FFB853" transform="translate(474.8125,373.625)"/>
<path d="M0 0 C7.41976817 3.84430017 12.22011322 8.49387598 15.1875 16.375 C17.72614051 24.89392788 16.27115913 32.62410751 12.1875 40.375 C8.32892475 46.21798538 2.87515553 49.90780073 -3.796875 51.99609375 C-11.95892906 53.53043337 -20.06116637 52.56506059 -27.01171875 47.8984375 C-32.72524407 43.27269981 -35.51926982 38.25469055 -37.8125 31.375 C-38.55350589 21.7561735 -37.73013627 14.707635 -31.625 7.125 C-23.65716342 -1.4856769 -10.98132577 -4.55507661 0 0 Z " fill="#FFB853" transform="translate(474.8125,300.625)"/>
<path d="M0 0 C2.64 0 5.28 0 8 0 C8.62829712 1.49164673 8.62829712 1.49164673 9.26928711 3.01342773 C10.81923799 6.69138852 12.37238329 10.367993 13.92651367 14.04418945 C14.59959179 15.63756902 15.2717949 17.2313185 15.94311523 18.82543945 C16.90640903 21.11246244 17.87280867 23.39815066 18.83984375 25.68359375 C19.14091537 26.40026718 19.441987 27.11694061 19.75218201 27.85533142 C20.98912364 31.16788054 20.98912364 31.16788054 23 34 C23.41886475 33.00556885 23.83772949 32.0111377 24.26928711 30.98657227 C25.81923799 27.30861148 27.37238329 23.632007 28.92651367 19.95581055 C29.59959179 18.36243098 30.2717949 16.7686815 30.94311523 15.17456055 C31.90640903 12.88753756 32.87280867 10.60184934 33.83984375 8.31640625 C34.14091537 7.59973282 34.441987 6.88305939 34.75218201 6.14466858 C36.88612829 1.11387171 36.88612829 1.11387171 38 0 C40.64 0 43.28 0 46 0 C46 14.85 46 29.7 46 45 C43.69 45 41.38 45 39 45 C38.67 35.76 38.34 26.52 38 17 C34.04 26.24 30.08 35.48 26 45 C23.69 45 21.38 45 19 45 C15.04 35.43 11.08 25.86 7 16 C6.67 25.57 6.34 35.14 6 45 C4.02 45 2.04 45 0 45 C0 30.15 0 15.3 0 0 Z " fill="#82551A" transform="translate(829,781)"/>
<path d="M0 0 C2.64 0 5.28 0 8 0 C9.6784708 3.71431569 11.3505806 7.43142459 13.01708984 11.15112305 C13.58374811 12.41360671 14.15207654 13.67534221 14.72216797 14.9362793 C15.54583641 16.75888012 16.3628165 18.58449877 17.1796875 20.41015625 C17.67194824 21.50465088 18.16420898 22.59914551 18.67138672 23.72680664 C20.05293736 27.13041734 21.05437055 30.45487049 22 34 C22.66 34 23.32 34 24 34 C24.38929688 32.7728125 24.77859375 31.545625 25.1796875 30.28125 C27.19733971 24.23066428 29.65584626 18.37758209 32.125 12.5 C32.58003906 11.40429688 33.03507812 10.30859375 33.50390625 9.1796875 C36.86930304 1.13069696 36.86930304 1.13069696 38 0 C40.64 0 43.28 0 46 0 C46 14.85 46 29.7 46 45 C43.69 45 41.38 45 39 45 C38.67 35.76 38.34 26.52 38 17 C37.21753906 18.93746094 36.43507813 20.87492188 35.62890625 22.87109375 C34.87119531 24.74104094 34.11346669 26.61098101 33.35522461 28.48071289 C32.82761686 29.78307694 32.30092085 31.08581073 31.77514648 32.38891602 C31.02045088 34.25893934 30.26223196 36.12753954 29.50390625 37.99609375 C29.04830322 39.12200928 28.5927002 40.2479248 28.12329102 41.40795898 C27 44 27 44 26 45 C24.00041636 45.04080783 21.99954746 45.04254356 20 45 C14.98890311 35.62828514 11.07355625 25.80415234 7 16 C6.67 25.57 6.34 35.14 6 45 C4.02 45 2.04 45 0 45 C0 30.15 0 15.3 0 0 Z " fill="#82551A" transform="translate(291,781)"/>
<path d="M0 0 C5.32672424 3.1373503 8.64778442 8.81835326 10.5625 14.5625 C11.23695335 22.54537404 11.20856155 29.78471609 6.5625 36.5625 C1.65593477 42.19776303 -3.43681438 44.19880131 -10.875 44.875 C-18.12905705 44.23867921 -23.26187271 41.61776387 -28.4375 36.5625 C-33.18690041 29.84783045 -33.2386423 22.573923 -32.4375 14.5625 C-30.28679015 7.40632641 -26.85490701 3.24656699 -20.4375 -0.4375 C-14.16792905 -2.52735698 -6.14115986 -2.61832397 0 0 Z M-23.75 11.3125 C-26.60504819 16.81111133 -27.02974259 21.30312522 -25.4375 27.1875 C-23.61294327 31.98110814 -20.86241725 34.99348812 -16.4375 37.5625 C-12.21162785 38.84535405 -10.04796553 38.74142955 -5.8125 37.5 C-1.4374656 34.98840618 1.27511519 32.13726963 3.5625 27.5625 C4.06488635 21.10876762 4.50691685 15.00307496 0.5625 9.5625 C-4.09050845 5.36344359 -6.97050542 4.19630345 -13.12109375 4.28515625 C-18.03143425 4.87307223 -20.6895625 7.67306081 -23.75 11.3125 Z " fill="#82551A" transform="translate(514.4375,782.4375)"/>
<path d="M0 0 C24.91666667 0 24.91666667 0 30.3125 5.25 C33.08899875 9.77466463 33.24150943 13.44360591 32.4375 18.625 C30.62289514 22.88537662 28.72010844 24.33122655 25 27 C26.80234261 31.80333054 29.23717686 36.11787967 31.7578125 40.57421875 C33 43 33 43 33 45 C30.36 45 27.72 45 25 45 C23.66161267 42.54429825 22.32913768 40.08570084 21 37.625 C20.6184375 36.92632813 20.236875 36.22765625 19.84375 35.5078125 C17 30.2265625 17 30.2265625 17 28 C13.37 28 9.74 28 6 28 C6 33.61 6 39.22 6 45 C4.02 45 2.04 45 0 45 C0 30.15 0 15.3 0 0 Z M6 6 C6 11.28 6 16.56 6 22 C8.3925 22.0825 10.785 22.165 13.25 22.25 C14.37003418 22.30462402 14.37003418 22.30462402 15.51269531 22.36035156 C18.91243695 22.4170444 20.68454083 22.2386296 23.421875 20.16796875 C25.48916316 17.32800606 26 15.51610956 26 12 C24.22960551 9.25283613 22.93708156 7.46854078 20 6 C17.62597499 5.92883618 15.24999323 5.91590915 12.875 5.9375 C9.471875 5.9684375 9.471875 5.9684375 6 6 Z " fill="#82551A" transform="translate(582,781)"/>
<path d="M0 0 C3.650625 -0.0825 7.30125 -0.165 11.0625 -0.25 C12.19953369 -0.28641602 13.33656738 -0.32283203 14.50805664 -0.36035156 C20.91913386 -0.43023935 24.82475864 0.11856898 30 4 C33.16010596 8.48531168 33.76703788 12.67334805 33 18 C31.18850506 23.23320761 28.84122843 25.40334111 24 28 C21.01367255 28.45814172 18.13668229 28.38167735 15.125 28.25 C12.44375 28.1675 9.7625 28.085 7 28 C7 33.61 7 39.22 7 45 C4.69 45 2.38 45 0 45 C0 30.15 0 15.3 0 0 Z M7 6 C7 11.28 7 16.56 7 22 C16.13861883 22.83126671 16.13861883 22.83126671 24.375 19.875 C26.28071139 16.50335677 26.64850195 14.80994895 26 11 C24.22015595 7.8640843 23.47691793 7.15897264 20 6 C15.66328697 5.86498403 11.33988266 5.95703086 7 6 Z " fill="#82551A" transform="translate(395,781)"/>
<path d="M0 0 C1.98 0 3.96 0 6 0 C6.01458252 0.87213135 6.02916504 1.7442627 6.04418945 2.64282227 C6.10557372 5.90659996 6.17978388 9.16957957 6.26245117 12.43286133 C6.29551994 13.8399778 6.32360704 15.24722116 6.34643555 16.65454102 C6.38031799 18.68820824 6.43264218 20.72073135 6.48828125 22.75390625 C6.51446533 23.97408447 6.54064941 25.1942627 6.56762695 26.45141602 C7.07273304 30.59693659 8.10142441 33.29303765 10 37 C13.07468061 39.04978708 14.85870092 39.00495786 18.5625 38.875 C22.32450411 37.91739895 23.67072977 37.04596876 26 34 C27.16402727 30.50791819 27.21118508 27.60852228 27.31640625 23.92578125 C27.33718735 23.2419487 27.35796844 22.55811615 27.37937927 21.8535614 C27.44466154 19.6733079 27.50366017 17.49293595 27.5625 15.3125 C27.60570553 13.83267014 27.64932047 12.35285217 27.69335938 10.87304688 C27.80032083 7.24882378 27.90164823 3.62446811 28 0 C30.31 0 32.62 0 35 0 C35.05856225 4.47911082 35.09378482 8.9581217 35.125 13.4375 C35.14175781 14.69755859 35.15851562 15.95761719 35.17578125 17.25585938 C35.27033697 35.36327937 35.27033697 35.36327937 30 42 C24.63811004 45.84956202 19.54413143 46.6617661 13 46 C7.12647298 44.2080765 4.44848337 41.86844711 1 37 C-0.21077701 33.36766898 -0.12444164 30.04878013 -0.09765625 26.26953125 C-0.0962413 25.51911057 -0.09482635 24.76868988 -0.09336853 23.99552917 C-0.0877756 21.6011454 -0.07522444 19.20685547 -0.0625 16.8125 C-0.05748408 15.18815239 -0.05292134 13.56380332 -0.04882812 11.93945312 C-0.03780848 7.95959931 -0.02054873 3.97981556 0 0 Z " fill="#82551A" transform="translate(736,781)"/>
<path d="M0 0 C9.57 0 19.14 0 29 0 C29 1.98 29 3.96 29 6 C21.41 6 13.82 6 6 6 C6 10.29 6 14.58 6 19 C12.27 19 18.54 19 25 19 C25 20.98 25 22.96 25 25 C18.73 25 12.46 25 6 25 C6 29.62 6 34.24 6 39 C13.92 39 21.84 39 30 39 C30 40.98 30 42.96 30 45 C20.1 45 10.2 45 0 45 C0 30.15 0 15.3 0 0 Z " fill="#82551A" transform="translate(205,781)"/>
<path d="M0 0 C2.31 0 4.62 0 7 0 C7 14.85 7 29.7 7 45 C4.69 45 2.38 45 0 45 C0 30.15 0 15.3 0 0 Z " fill="#82551A" transform="translate(671,781)"/>
</svg>
